<svg width="24" height="24" xmlns="http://www.w3.org/2000/svg" fill-rule="evenodd" clip-rule="evenodd"><path d="M8.141 11.624l-.653-.519c-.395-.312-.477-.878-.187-1.291l2.474-3.519c.237-.337.7-.42 1.04-.186l4.185 2.884h1.5c.31 0 .5.259.5.5 0 .276-.224.5-.5.5h-.728l1.3 2.393c.593-.248 1.244-.386 1.928-.386 2.76 0 5 2.24 5 5s-2.24 5-5 5-5-2.24-5-5c0-1.72.87-3.237 2.193-4.138l-1.563-2.877-2.541-.782-.872 1.309 2.287 2.948c.179.231.216.535.122.811-.338.994-1.201 3.429-1.567 4.398-.09.244-.351.38-.604.316l-.023-.006c-.286-.071-.46-.347-.42-.637.156-1.159.573-3.986.573-3.986l-2.659-2.109-.674.957c1.07.917 1.748 2.277 1.748 3.796 0 2.76-2.24 5-5 5s-5-2.24-5-5 2.24-5 5-5c.883 0 1.712.229 2.433.632l.708-1.008zm-1.288 1.831c-.554-.291-1.185-.455-1.853-.455-2.208 0-4 1.792-4 4s1.792 4 4 4c2.207 0 4-1.792 4-4 0-1.18-.512-2.241-1.326-2.974l-1.779 2.529c.067.133.105.285.105.445 0 .552-.448 1-1 1s-1-.448-1-1 .448-1 1-1l.061.002 1.792-2.547zm9.821.292c-1.014.726-1.674 1.913-1.674 3.253 0 2.208 1.792 4 4 4s4-1.792 4-4-1.792-4-4-4c-.511 0-.998.096-1.447.27l1.483 2.731c.535.019.964.459.964.999 0 .552-.448 1-1 1s-1-.448-1-1c0-.194.056-.377.152-.53l-1.478-2.723zm-3.597-11.747c1.147 0 2.077.931 2.077 2.077 0 1.147-.93 2.077-2.077 2.077-1.146 0-2.077-.93-2.077-2.077 0-1.146.931-2.077 2.077-2.077z"/></svg>