<svg width="24" height="24" xmlns="http://www.w3.org/2000/svg" fill-rule="evenodd" clip-rule="evenodd"><path d="M15.968 11l6.032 11.463s-2.112.804-5.554 1.249l-1.446-3.712.432 3.828c-1.062.105-2.228.172-3.479.172-1.219 0-2.352-.063-3.385-.164l.432-3.836-1.45 3.721c-3.458-.443-5.55-1.258-5.55-1.258l6.128-11.463h7.84zm-7.823-1l-1.162-4.09-2.44.794-1.543-2.429 5-4.275s2.039 1 4 1c1.961 0 3.978-1 3.978-1l5.022 4.275-1.543 2.429-2.44-.794-1.076 4.09h-7.796zm.362-8.709s1.497.709 3.493.709c1.996 0 3.546-.707 3.546-.707s-1.028 2.707-3.546 2.707-3.493-2.709-3.493-2.709z"/></svg>